<?xml version="1.0" encoding="UTF-8"?><svg id="Layer_2" xmlns="http://www.w3.org/2000/svg" width="21.78" height="21.78" viewBox="0 0 21.78 21.78"><g id="ARTTBOARD_2"><g id="SYMBOLS"><path d="M21.54,4.4L17.38.24c-.31-.31-.83-.31-1.14,0l-4.78,4.78c-.32.32-.83.31-1.14,0L5.54.24c-.31-.32-.83-.32-1.14,0L.24,4.4c-.32.32-.31.83,0,1.14l4.78,4.77c.32.31.32.83,0,1.14L.24,16.24c-.31.31-.31.83,0,1.14l4.17,4.17c.32.32.83.31,1.14,0l4.77-4.78c.31-.32.83-.32,1.14,0l4.78,4.78c.31.31.83.31,1.14,0l4.17-4.17c.31-.31.31-.83,0-1.14l-4.78-4.78c-.32-.32-.31-.83,0-1.14l4.78-4.77c.32-.31.32-.83,0-1.14Z" fill="#3f3c77"/></g></g></svg>