<?xml version="1.0" encoding="UTF-8"?><svg id="Layer_2" xmlns="http://www.w3.org/2000/svg" width="37.68" height="41.64" viewBox="0 0 37.68 41.64"><g id="Settings_icon"><g id="settings_group"><path d="M21.34,39.62l12.54-7.24c1.47-.85,2.38-2.19,2.49-3.93v-15.27c-.12-1.74-1.02-3.08-2.49-3.93L21.21,1.94c-1.65-.95-3.39-.79-5,.14L3.64,9.35c-1.42.82-2.21,2.19-2.34,3.83v15.28c.12,1.69.97,3.04,2.42,3.88l12.67,7.31c1.59.92,3.31.93,4.95-.02Z" fill="none" stroke="#5d4dd8" stroke-miterlimit="10" stroke-width="2.6"/><path d="M27.16,20.82c0,4.6-3.73,8.32-8.32,8.32s-8.32-3.73-8.32-8.32,3.73-8.32,8.32-8.32,8.32,3.73,8.32,8.32Z" fill="none" stroke="#5d4dd8" stroke-miterlimit="10" stroke-width="2.6"/></g></g></svg>